<?xml version="1.0" encoding="UTF-8"?>
<svg xmlns="http://www.w3.org/2000/svg" width="32" height="32" viewBox="0 0 32 32" fill="none">
  <path d="M22.7449 21.8066C23.7056 21.0786 24.9373 20.5098 26.1781 20.2966C26.4041 20.2527 26.6234 20.2232 26.8345 20.2059C29.1084 20.1499 30.9351 18.2911 30.9351 16.0063C30.9351 13.7215 29.0519 11.8052 26.7292 11.8052C26.7127 11.8052 26.6963 11.8052 26.6799 11.8057C26.6693 11.8057 26.6591 11.8052 26.6485 11.8052C24.8585 11.8052 23.4337 12.6707 22.7227 14.4958C22.5344 15.0732 22.5034 15.5591 22.5237 16.0429C22.5252 16.22 22.5377 16.3942 22.5604 16.5649C22.6049 17.0652 22.6638 17.5973 22.6285 18.2554C22.3962 21.3126 19.1785 23.6085 16.4612 23.6085C16.4906 23.6085 16.4293 23.6085 16.4612 23.6085C16.3882 23.6085 16.3201 23.609 16.2482 23.6066C16.1868 23.6027 16.125 23.5993 16.0627 23.5979C14.3408 23.4315 12.7856 22.7015 11.5868 21.5963C12.6788 20.7298 14.0612 20.2122 15.5647 20.2122C15.615 20.2122 15.6647 20.2126 15.7145 20.2136C15.798 20.2184 15.8825 20.2213 15.9675 20.2213C18.2903 20.2213 20.1735 18.3403 20.1735 16.0203C20.1735 15.8311 20.1609 15.6454 20.1368 15.463L20.1319 15.4293C20.1174 15.2522 20.1184 15.1032 20.1184 14.9222C20.1184 11.3971 22.9183 8.52561 26.4181 8.40452H26.45C26.506 8.40452 26.5505 8.40356 26.5954 8.40259C26.6408 8.40163 26.6871 8.40066 26.7461 8.40066C29.0688 8.40066 30.952 6.51964 30.952 4.19961C30.952 1.87957 29.0683 0 26.7456 0C24.9508 0 23.4187 1.12263 22.815 2.70357H22.814L22.8097 2.71756C22.7937 2.76002 22.7783 2.80296 22.7633 2.84637C22.5358 3.39925 21.991 3.78905 21.3554 3.78905C20.7197 3.78905 20.1484 3.38043 19.9315 2.80633C19.3514 1.17811 17.7957 0.0130258 15.9675 0.0130258C14.1394 0.0130258 12.6489 1.12987 12.0418 2.70357H12.0393C12.0355 2.7166 12.0311 2.72962 12.0273 2.74265C12.0166 2.7716 12.006 2.80054 11.9959 2.82949C11.7737 3.38912 11.2269 3.78471 10.5879 3.78471C9.94894 3.78471 9.36983 3.36499 9.16117 2.77932C8.57288 1.16557 7.0244 0.0130258 5.20592 0.0130258C2.8832 0.0130258 1 1.89356 1 4.2136C1 6.53363 2.8832 8.41465 5.20592 8.41465C6.92442 8.41465 8.4019 7.38514 9.05491 5.91033H9.0554C9.31042 5.38254 9.82674 5.0019 10.4609 5.0019C11.1376 5.0019 11.7109 5.42934 11.9085 6.02032C11.9621 6.18097 11.95 6.34886 11.9481 6.4632C11.7157 9.5204 9.08148 11.8163 5.87246 11.8163C5.84058 11.8163 5.81015 11.8163 5.78069 11.8163C5.67443 11.8168 5.57928 11.8173 5.46674 11.8096H5.44356C5.37739 11.8062 5.31073 11.8047 5.2436 11.8047C2.92039 11.8057 1.03767 13.6862 1.03767 16.0063C1.03767 18.3263 2.92087 20.2073 5.2436 20.2073C5.54982 20.2073 5.84831 20.1745 6.13569 20.1128C6.31681 20.0819 6.58874 20.0563 6.89641 20.0771C7.11424 20.0983 7.34753 20.1408 7.58516 20.217C8.43185 20.5277 9.1974 21.0058 9.84171 21.6112C8.73034 22.8067 7.21615 23.5665 5.43776 23.6042C5.32812 23.6042 5.28417 23.5979 5.20641 23.5979C2.88368 23.5979 1.00048 25.4789 1.00048 27.7989C1.00048 30.119 2.88368 32 5.20641 32C6.94664 32 8.44006 30.9444 9.07955 29.4387H9.08051C9.31718 28.8511 9.90305 28.4353 10.5879 28.4353C11.1545 28.4353 11.652 28.7199 11.9413 29.1502C12.5045 30.8074 14.0752 32 15.9246 32C15.9265 32 15.9289 31.9995 15.9313 31.9995C15.9434 31.9995 15.9555 32 15.9675 32C17.729 32 19.2374 30.9184 19.8639 29.3837C20.1141 28.8256 20.6845 28.4353 21.3481 28.4353C22.0117 28.4353 22.6194 28.8511 22.8555 29.4387H22.856C23.4955 30.9439 24.9889 32 26.7292 32C29.0519 32 30.9351 30.119 30.9351 27.7989C30.9351 25.4789 29.0519 23.5979 26.7292 23.5979C24.9179 23.5979 23.4593 24.6713 22.7821 26.3449C22.5228 26.8611 21.9794 27.2166 21.351 27.2166C20.7569 27.2166 20.2396 26.8982 19.9658 26.4274C20.0276 26.04 20.1121 25.6314 20.2237 25.1991C20.7159 23.7581 21.5181 22.6653 22.7449 21.8066ZM26.7292 13.4798C28.126 13.4798 29.2586 14.6111 29.2586 16.0063C29.2586 17.4015 28.126 18.5328 26.7292 18.5328C25.3323 18.5328 24.1997 17.4015 24.1997 16.0063C24.1997 14.6111 25.3323 13.4798 26.7292 13.4798ZM15.9675 1.68708C17.3644 1.68708 18.497 2.81839 18.497 4.2136C18.497 5.6088 17.3644 6.74012 15.9675 6.74012C14.5707 6.74012 13.4381 5.6088 13.4381 4.2136C13.4381 2.81839 14.5707 1.68708 15.9675 1.68708ZM5.20592 18.5333C3.8091 18.5333 2.67648 17.402 2.67648 16.0068C2.67648 14.6115 3.8091 13.4802 5.20592 13.4802C6.60275 13.4802 7.73537 14.6115 7.73537 16.0068C7.73537 17.402 6.60275 18.5333 5.20592 18.5333ZM9.54274 13.4064C10.0349 11.9654 10.8372 10.8727 12.064 10.0139C13.0247 9.28594 14.2563 8.71714 15.4971 8.50391C15.7632 8.45228 16.0212 8.419 16.266 8.40452C17.8957 8.29019 19.2688 7.24909 19.8615 5.80516C20.0774 5.33189 20.5628 5.00142 21.1274 5.00142C21.7258 5.00142 22.2359 5.37241 22.4295 5.89199C22.4914 6.09848 22.4711 6.39759 22.458 6.5428C22.0195 9.52812 19.4408 11.8202 16.3254 11.8202C16.2718 11.8202 16.2187 11.8197 16.1656 11.8182H16.1472C16.1086 11.8182 16.0806 11.8187 16.053 11.8192C16.027 11.8197 16.0009 11.8202 15.968 11.8202C13.6453 11.8202 11.7621 13.7012 11.7621 16.0212C11.7621 16.2123 11.7751 16.4004 11.7998 16.5847C11.8065 16.6402 11.8119 16.6933 11.8152 16.7434C11.8186 16.8115 11.821 16.8795 11.8225 16.948C11.8225 17.0575 11.8167 17.1439 11.8114 17.1998C11.666 18.4281 11.2632 19.5797 10.6483 20.5581C10.4923 20.3501 10.3469 20.134 10.2127 19.9111C9.37514 18.6109 8.69895 16.674 9.54322 13.4064H9.54274ZM12.1896 26.2296C12.0152 26.9388 11.0642 27.2384 10.6435 27.2384C10.2228 27.2384 9.27178 26.9383 9.0979 26.2296C8.80907 25.0548 10.0306 23.2177 10.6435 22.51C11.2564 23.2177 12.4779 25.0548 12.1896 26.2296ZM15.9279 30.3245C14.5495 30.3033 13.4381 29.1811 13.4381 27.7989C13.4381 26.4168 14.549 25.2946 15.9275 25.2734C17.3054 25.2951 18.4163 26.4172 18.4163 27.7989C18.4163 29.1806 17.3059 30.3023 15.9279 30.3245Z" fill="#0E9DE4"></path>
</svg>
